<svg width="250" height="200" viewBox="0 0 250 200" fill="none" xmlns="http://www.w3.org/2000/svg">
<rect width="250" height="200" fill="white"/>
<path fill-rule="evenodd" clip-rule="evenodd" d="M207 65C210.866 65 214 68.134 214 72C214 75.866 210.866 79 207 79H167C170.866 79 174 82.134 174 86C174 89.866 170.866 93 167 93H189C192.866 93 196 96.134 196 100C196 103.866 192.866 107 189 107H178.826C173.952 107 170 110.134 170 114C170 116.577 172 118.911 176 121C179.866 121 183 124.134 183 128C183 131.866 179.866 135 176 135H93C89.134 135 86 131.866 86 128C86 124.134 89.134 121 93 121H54C50.134 121 47 117.866 47 114C47 110.134 50.134 107 54 107H94C97.866 107 101 103.866 101 100C101 96.134 97.866 93 94 93H69C65.134 93 62 89.866 62 86C62 82.134 65.134 79 69 79H109C105.134 79 102 75.866 102 72C102 68.134 105.134 65 109 65H207ZM207 93C210.866 93 214 96.134 214 100C214 103.866 210.866 107 207 107C203.134 107 200 103.866 200 100C200 96.134 203.134 93 207 93Z" fill="#EFE9FF"/>
<path fill-rule="evenodd" clip-rule="evenodd" d="M153.486 64.0022L162.949 131.695L163.801 138.487C164.076 140.675 162.526 142.671 160.34 142.946L101.948 150.288C99.7614 150.563 97.7664 149.012 97.4919 146.824L88.2993 73.5557C88.162 72.4617 88.937 71.4635 90.0302 71.326C90.0371 71.3252 90.044 71.3243 90.0509 71.3235L94.8954 70.7659M98.8441 70.1743L103.429 69.653L98.8441 70.1743Z" fill="white"/>
<path d="M154.724 63.8291C154.629 63.1454 153.997 62.6686 153.313 62.7642C152.63 62.8598 152.153 63.4915 152.248 64.1752L154.724 63.8291ZM162.949 131.695L164.189 131.539C164.189 131.534 164.188 131.528 164.187 131.522L162.949 131.695ZM163.801 138.487L165.042 138.331L163.801 138.487ZM160.34 142.946L160.496 144.186L160.34 142.946ZM101.948 150.288L102.104 151.528L101.948 150.288ZM97.4919 146.824L98.7322 146.668L97.4919 146.824ZM88.2993 73.5557L87.059 73.7113L88.2993 73.5557ZM90.0509 71.3235L90.1938 72.5653L90.0509 71.3235ZM95.0384 72.0077C95.7242 71.9287 96.2162 71.3088 96.1372 70.6229C96.0583 69.9371 95.4383 69.4451 94.7525 69.5241L95.0384 72.0077ZM98.7029 68.9323C98.017 69.0103 97.5241 69.6295 97.6021 70.3155C97.6801 71.0014 98.2994 71.4942 98.9853 71.4163L98.7029 68.9323ZM103.57 70.895C104.256 70.817 104.749 70.1977 104.671 69.5118C104.593 68.8258 103.974 68.333 103.288 68.411L103.57 70.895ZM152.248 64.1752L161.711 131.868L164.187 131.522L154.724 63.8291L152.248 64.1752ZM161.709 131.851L162.561 138.642L165.042 138.331L164.189 131.539L161.709 131.851ZM162.561 138.642C162.75 140.146 161.684 141.517 160.184 141.706L160.496 144.186C163.368 143.825 165.402 141.203 165.042 138.331L162.561 138.642ZM160.184 141.706L101.792 149.048L102.104 151.528L160.496 144.186L160.184 141.706ZM101.792 149.048C100.291 149.236 98.9209 148.172 98.7322 146.668L96.2517 146.98C96.612 149.852 99.2314 151.889 102.104 151.528L101.792 149.048ZM98.7322 146.668L89.5396 73.4001L87.059 73.7113L96.2517 146.98L98.7322 146.668ZM89.5396 73.4001C89.4881 72.9902 89.7785 72.6175 90.1861 72.5663L89.8742 70.0858C88.0954 70.3094 86.8359 71.9333 87.059 73.7113L89.5396 73.4001ZM90.1861 72.5663C90.1887 72.5659 90.1912 72.5656 90.1938 72.5653L89.9079 70.0817C89.8967 70.083 89.8854 70.0844 89.8742 70.0858L90.1861 72.5663ZM90.1938 72.5653L95.0384 72.0077L94.7525 69.5241L89.9079 70.0817L90.1938 72.5653ZM98.9853 71.4163L103.57 70.895L103.288 68.411L98.7029 68.9323L98.9853 71.4163Z" fill="#6941C6"/>
<path fill-rule="evenodd" clip-rule="evenodd" d="M151.141 68.2686L159.56 129.752L160.318 135.921C160.562 137.908 159.168 139.714 157.204 139.955L104.762 146.394C102.798 146.635 101.009 145.22 100.765 143.233L92.6148 76.8562C92.4802 75.7599 93.2598 74.762 94.3562 74.6274L100.844 73.8308" fill="#EFE9FF"/>
<path d="M107.922 54C107.922 52.4812 109.153 51.25 110.672 51.25H156.229C156.958 51.25 157.657 51.5395 158.173 52.0549L171.616 65.4898C172.132 66.0056 172.422 66.7053 172.422 67.4349V130C172.422 131.519 171.191 132.75 169.672 132.75H110.672C109.153 132.75 107.922 131.519 107.922 130V54Z" fill="white" stroke="#6941C6" stroke-width="2.5"/>
<path d="M156.672 52.4023V63.9995C156.672 65.6564 158.015 66.9995 159.672 66.9995H167.605" stroke="#6941C6" stroke-width="2.5" stroke-linecap="round" stroke-linejoin="round"/>
<path d="M118 118H144M118 67H144H118ZM118 79H161H118ZM118 92H161H118ZM118 105H161H118Z" stroke="#7F56D9" stroke-width="2.5" stroke-linecap="round" stroke-linejoin="round"/>
</svg>
